<svg xmlns="http://www.w3.org/2000/svg" viewBox="0 0 64 80" x="0px" y="0px"><title>_</title><g data-name="Push Information"><path d="M34.32471,24.81494H33V17.91113a1.46663,1.46663,0,0,0-1.46484-1.46484h-1.395a1,1,0,0,0,0,2H31v6.36865H29.67529a1,1,0,0,0,0,2h4.64942A1,1,0,0,0,34.32471,24.81494Z"/><circle cx="31.53506" cy="13.51383" r="1.44803"/><path d="M42.8147,39.70343a3.19388,3.19388,0,0,0-4.31305-1.0202,3.39177,3.39177,0,0,0-3.55249-1.24457l.01733-2.58795a15.55869,15.55869,0,1,0-6.37878-.09137L28.648,44.9917l-.03174.02881A6.60784,6.60784,0,0,0,25.3291,41.9707a6.43775,6.43775,0,0,0-4.20019-.21631,1.51063,1.51063,0,0,0-.9795,2.02784,70.7557,70.7557,0,0,0,7.1128,13.9707,4.5121,4.5121,0,0,0,3.49463,2.22461H42.33057a4.00925,4.00925,0,0,0,3.59228-2.23682A10.38156,10.38156,0,0,0,46.875,53.0874l-.0415-9.978A3.39872,3.39872,0,0,0,42.8147,39.70343ZM29.0506,29.31226a10.16522,10.16522,0,1,1,5.52563.10559,3.07968,3.07968,0,0,0-2.67633-1.67566A3.13855,3.13855,0,0,0,29.0506,29.31226ZM18.43652,19.58643A13.56348,13.56348,0,1,1,34.98016,32.81659l.00971-1.44428a12.16518,12.16518,0,1,0-6.42279-.12109l.0086,1.46265A13.50955,13.50955,0,0,1,18.43652,19.58643ZM44.12305,56.86768a1.99645,1.99645,0,0,1-1.79248,1.10986H30.77783a2.72959,2.72959,0,0,1-1.86963-1.36035,67.42011,67.42011,0,0,1-6.68945-13.05762,4.35071,4.35071,0,0,1,2.35059.26172,4.78406,4.78406,0,0,1,2.50293,2.60156,1.49728,1.49728,0,0,0,2.37988.5332c.629-.56278,1.20007-.92167,1.19726-1.75878l-.083-14.07471a1.26236,1.26236,0,0,1,1.27246-1.38135A1.23248,1.23248,0,0,1,32.9917,31.082l-.0835,12.4419a1,1,0,0,0,2,.01367l.02674-3.98657a1.52954,1.52954,0,0,1,2.34143,1.35864l.03955,3.8833a1.00005,1.00005,0,0,0,2-.02051l-.03955-3.8833c-.0011-.10413-.02039-.2038-.03-.306a1.25761,1.25761,0,0,1,2.12134,1.02667l.03711,4.09327a1,1,0,0,0,2-.01856l-.03669-4.04474a1.4227,1.4227,0,0,1,1.4654,1.47736l.0415,9.97656A8.43847,8.43847,0,0,1,44.12305,56.86768Z"/></g><text x="0" y="79" fill="#000000" font-size="5px" font-weight="bold" font-family="'Helvetica Neue', Helvetica, Arial-Unicode, Arial, Sans-serif">Created by Andy Horvath</text><text x="0" y="84" fill="#000000" font-size="5px" font-weight="bold" font-family="'Helvetica Neue', Helvetica, Arial-Unicode, Arial, Sans-serif">from the Noun Project</text></svg>